<?xml version="1.0" encoding="UTF-8" standalone="no"?>
<svg
   version="1.1"
   viewBox="0 0 216 183"
   width="216"
   height="183"
   id="svg4"
   sodipodi:docname="example.ink.svg"
   inkscape:version="1.3.2 (091e20ef0f, 2023-11-25, custom)"
   xmlns:inkscape="http://www.inkscape.org/namespaces/inkscape"
   xmlns:sodipodi="http://sodipodi.sourceforge.net/DTD/sodipodi-0.dtd"
   xmlns="http://www.w3.org/2000/svg"
   xmlns:svg="http://www.w3.org/2000/svg">
  <sodipodi:namedview
     id="namedview4"
     pagecolor="#505050"
     bordercolor="#ffffff"
     borderopacity="1"
     inkscape:showpageshadow="0"
     inkscape:pageopacity="0"
     inkscape:pagecheckerboard="1"
     inkscape:deskcolor="#d1d1d1"
     inkscape:zoom="4.5231481"
     inkscape:cx="108"
     inkscape:cy="91.418628"
     inkscape:window-width="1920"
     inkscape:window-height="1028"
     inkscape:window-x="0"
     inkscape:window-y="27"
     inkscape:window-maximized="1"
     inkscape:current-layer="svg4" />
  <!-- svg-source:excalidraw -->
  <defs
     id="defs1">
    <style
       class="style-fonts"
       id="style1">
      @font-face {
        font-family: &quot;Virgil&quot;;
        src: url(&quot;https://excalidraw.com/Virgil.woff2&quot;);
      }
      @font-face {
        font-family: &quot;Cascadia&quot;;
        src: url(&quot;https://excalidraw.com/Cascadia.woff2&quot;);
      }
      @font-face {
        font-family: &quot;Assistant&quot;;
        src: url(&quot;https://excalidraw.com/Assistant-Regular.woff2&quot;);
      }
    </style>
  </defs>
  <g
     stroke-linecap="round"
     transform="translate(72 10) rotate(0 67 66)"
     id="g2">
    <path
       d="M19.57 17.72 C25.73 10.79, 36.03 7.26, 44.94 4.66 C53.86 2.05, 63.75 0.99, 73.08 2.1 C82.41 3.21, 92.58 6.9, 100.91 11.33 C109.25 15.77, 117.92 21.07, 123.09 28.72 C128.25 36.36, 130.9 47.61, 131.89 57.19 C132.88 66.77, 132.2 77.07, 129.02 86.19 C125.83 95.31, 119.47 104.69, 112.78 111.91 C106.1 119.13, 97.58 125.94, 88.91 129.5 C80.25 133.05, 70.38 134.77, 60.78 133.22 C51.18 131.66, 39.99 125.45, 31.3 120.18 C22.62 114.9, 13.87 109.36, 8.66 101.58 C3.45 93.79, 1.2 83.22, 0.04 73.48 C-1.11 63.73, -6.58 55.18, 1.73 43.1 C10.04 31.03, 35.24 7.3, 49.9 1.02 C64.55 -5.26, 88.94 4.19, 89.64 5.44 M101.17 7.04 C110.35 10.97, 118.13 21.28, 123.79 29.78 C129.45 38.27, 133.49 49.27, 135.15 58 C136.8 66.72, 136.68 73.42, 133.73 82.14 C130.77 90.86, 124.02 103.04, 117.44 110.29 C110.87 117.54, 103.46 121.73, 94.28 125.64 C85.11 129.55, 72.81 133.77, 62.41 133.78 C52 133.79, 40.58 130.29, 31.87 125.7 C23.17 121.12, 15.53 114.86, 10.19 106.29 C4.86 97.72, 1.19 83.69, -0.14 74.28 C-1.47 64.88, -0.42 58.26, 2.22 49.85 C4.85 41.43, 9.29 31.64, 15.66 23.79 C22.02 15.95, 31.06 6.64, 40.42 2.76 C49.78 -1.12, 61.91 0.04, 71.83 0.51 C81.75 0.98, 95.48 4.19, 99.96 5.58 C104.44 6.97, 99.23 7.81, 98.7 8.85"
       stroke="none"
       stroke-width="0"
       fill="#38d9a9"
       id="path1" />
    <path
       d="M54.45 2.39 C63.71 -0.57, 74.9 -2.01, 84.2 0.18 C93.5 2.38, 103.12 9.03, 110.24 15.55 C117.36 22.07, 122.88 30.69, 126.91 39.28 C130.93 47.87, 134.49 57.69, 134.39 67.08 C134.28 76.46, 130.56 86.99, 126.29 95.6 C122.01 104.21, 116.63 112.7, 108.76 118.73 C100.89 124.76, 88.58 129.64, 79.09 131.78 C69.59 133.92, 60.89 134.21, 51.79 131.57 C42.68 128.93, 31.85 122.05, 24.46 115.94 C17.06 109.83, 11.23 103.35, 7.44 94.91 C3.65 86.47, 1.44 74.96, 1.69 65.27 C1.94 55.58, 4.83 45.3, 8.93 36.78 C13.02 28.26, 15.2 19.9, 26.27 14.15 C37.34 8.4, 63.61 3.58, 75.37 2.3 C87.13 1.01, 96.8 5.35, 96.83 6.44 M42.74 2.02 C51.36 -2.48, 61.73 -2.51, 71.28 -1.09 C80.83 0.33, 91.42 5.92, 100.05 10.55 C108.69 15.18, 117.37 18.94, 123.11 26.67 C128.85 34.4, 132.71 46.7, 134.51 56.92 C136.31 67.14, 137.39 78.64, 133.91 87.96 C130.43 97.29, 120.4 106.77, 113.65 112.87 C106.89 118.97, 101.62 121.18, 93.37 124.55 C85.12 127.93, 74.02 133.41, 64.16 133.11 C54.3 132.82, 42.51 127.56, 34.23 122.79 C25.94 118.01, 20.5 111.99, 14.46 104.46 C8.43 96.93, 0.41 87.37, -1.99 77.61 C-4.39 67.85, -3.63 55.43, 0.07 45.89 C3.76 36.34, 13.36 27.23, 20.17 20.34 C26.98 13.45, 37.57 7.31, 40.93 4.56 C44.3 1.82, 39.72 3.28, 40.36 3.85"
       stroke="#12b886"
       stroke-width="2"
       fill="none"
       id="path2" />
  </g>
  <g
     stroke-linecap="round"
     transform="translate(10 41) rotate(0 67 66)"
     id="g4">
    <path
       d="M5.27 36.38 C5.27 36.38, 5.27 36.38, 5.27 36.38 M5.27 36.38 C5.27 36.38, 5.27 36.38, 5.27 36.38 M-2.49 65.76 C20.77 42.29, 40.36 24.58, 58.08 6.57 M0.27 67.88 C21.44 41.71, 44.81 16.17, 56.84 1.84 M3.78 89.46 C30.38 58.24, 58.42 20.88, 77.46 3.54 M3.98 86.2 C26.48 61.92, 48.24 34.86, 75.11 3.79 M13.08 99.24 C49.47 62.13, 79.85 25.4, 97.38 11.06 M13.05 102.94 C39.22 68.05, 69.14 38.16, 95.88 9.33 M22 114.98 C45.77 87.52, 66.41 64.99, 110.87 16.76 M21.25 114.96 C50.61 84.53, 76.68 51.81, 107.42 14.73 M36.17 124.51 C64.86 95.98, 82.56 67.85, 115.62 26.24 M36.01 124.67 C70.75 85.87, 103.48 46.41, 119.06 25.99 M51.26 132.37 C70.3 107.91, 87.41 87.79, 128.56 42.52 M52.17 129.96 C71.3 107.31, 89.94 86.33, 128.67 39.39 M71.57 127.77 C97.36 103.86, 120.2 79.45, 134.87 59.85 M71.5 129.31 C89.14 112.35, 106.62 88.79, 132.55 60.52 M102.74 119.85 C107.56 114.79, 112.7 110.57, 128.5 88.94 M100.3 122.13 C109.64 112.08, 117.46 103.54, 130.82 86.51 M25.29 118.76 C25.29 118.76, 25.29 118.76, 25.29 118.76 M25.29 118.76 C25.29 118.76, 25.29 118.76, 25.29 118.76 M63.19 128.91 C47.88 121.6, 36.7 103.72, 6.63 75.85 M62.28 127.92 C40.9 110.26, 20.22 92.71, 1.63 80.03 M83.4 125.73 C57.97 107.02, 40.31 89.64, 1.39 55.64 M86.33 131.11 C52.84 100.97, 25.44 73.41, 3.67 54.22 M103.18 122.87 C76.99 98.34, 50.86 74.42, 3.55 34.25 M100.53 122.76 C78.7 98.7, 52.62 81.77, 5.97 39.78 M114.7 111.18 C89.93 90.53, 59.48 64.16, 12.25 22.78 M113.31 113.08 C84.09 84.96, 52.13 57.06, 14.73 23.7 M124.81 97.07 C95.02 71.36, 54.37 42.32, 21.83 14.05 M123.54 98.89 C88.45 65.94, 54.36 38.73, 25.21 13.57 M129.29 81.95 C105.49 59.43, 71.67 29.62, 41.59 5.71 M131.9 83.93 C101.99 59.28, 75.87 34.11, 42.71 5.63 M135.86 66.2 C107.35 42.37, 80.94 12.22, 65.03 1.29 M133.06 67.68 C117.35 51.83, 103.25 40.37, 60.81 2.68 M129.44 36.68 C117.53 31.95, 110.92 25.71, 86.59 6.74 M129.98 41.8 C116.03 26.64, 101.52 18.22, 91.33 7.46"
       stroke="#da77f2"
       stroke-width="2"
       fill="none"
       id="path3" />
    <path
       d="M51.64 2.58 C60.43 -0.05, 74.26 1.49, 83.97 3.43 C93.68 5.38, 102.35 8.18, 109.89 14.25 C117.43 20.31, 124.91 30.9, 129.2 39.81 C133.5 48.71, 135.77 58.27, 135.67 67.67 C135.56 77.07, 133.21 87.67, 128.58 96.2 C123.95 104.73, 115.85 112.81, 107.9 118.83 C99.95 124.84, 90.16 130.65, 80.86 132.28 C71.55 133.91, 61.31 130.86, 52.07 128.62 C42.82 126.37, 33.12 124.94, 25.36 118.82 C17.6 112.71, 9.73 100.79, 5.5 91.93 C1.27 83.06, 0.03 74.87, -0.02 65.62 C-0.07 56.38, 1.01 45.09, 5.19 36.46 C9.38 27.84, 14.07 19.83, 25.07 13.88 C36.08 7.93, 61.22 2.22, 71.24 0.76 C81.26 -0.71, 85.32 3.8, 85.2 5.09 M124.76 27.59 C131.33 34.5, 134.15 49.35, 135.15 59.17 C136.15 68.99, 133.71 77.53, 130.75 86.51 C127.8 95.48, 124.7 105.89, 117.41 113.02 C110.12 120.16, 96.98 126.41, 86.99 129.33 C77 132.24, 66.19 131.89, 57.46 130.52 C48.73 129.15, 42.59 125.95, 34.6 121.12 C26.62 116.28, 15.59 109.72, 9.55 101.53 C3.5 93.34, -0.71 81.89, -1.68 71.97 C-2.64 62.05, 0.19 50.38, 3.74 42 C7.3 33.63, 13.32 28.57, 19.66 21.73 C26.01 14.9, 32.91 4.5, 41.82 0.99 C50.72 -2.52, 63.53 -0.9, 73.09 0.67 C82.66 2.24, 90.63 5.73, 99.21 10.41 C107.79 15.08, 120.32 25.65, 124.58 28.74 C128.85 31.82, 125.6 28.16, 124.81 28.9"
       stroke="#9c36b5"
       stroke-width="4"
       fill="none"
       id="path4" />
  </g>
</svg>
